<svg xmlns="http://www.w3.org/2000/svg" viewBox="0 0 256 256" width="256" height="256">
  <rect x="8" y="8" width="240" height="240" rx="52" fill="#1a1a20"/>
  <rect x="64" y="40" width="128" height="176" rx="16" fill="#e8c96a"/>
  <g fill="#1a1a20">
    <rect x="72"  y="50"  width="16" height="20" rx="5"/>
    <rect x="72"  y="85"  width="16" height="20" rx="5"/>
    <rect x="72"  y="120" width="16" height="20" rx="5"/>
    <rect x="72"  y="155" width="16" height="20" rx="5"/>
    <rect x="72"  y="190" width="16" height="20" rx="5"/>
    <rect x="168" y="50"  width="16" height="20" rx="5"/>
    <rect x="168" y="85"  width="16" height="20" rx="5"/>
    <rect x="168" y="120" width="16" height="20" rx="5"/>
    <rect x="168" y="155" width="16" height="20" rx="5"/>
    <rect x="168" y="190" width="16" height="20" rx="5"/>
    <rect x="96"  y="91"  width="64" height="8" rx="3"/>
    <rect x="96"  y="126" width="64" height="8" rx="3"/>
    <rect x="96"  y="161" width="64" height="8" rx="3"/>
  </g>
</svg>
